<?xml version="1.0" encoding="UTF-8"?><svg xmlns="http://www.w3.org/2000/svg" viewBox="0 0 547.49 200"><defs><style>.cls-1{fill:#fff;}.cls-2{fill:#86bc27;}.cls-3{fill:#5a5a5a;}.cls-4{fill:#0970b9;}</style></defs><g id="Hintergrund_weiß"><rect class="cls-1" width="547.49" height="200"/></g><g id="Logo"><g><path class="cls-4" d="M122.27,72.43h-31.63v25.44h29.15v11.86h-29.15v35.41h-14.05V60.51h45.68v11.92Z"/><g><path class="cls-4" d="M132.4,145.14V60.51h24.43c31.2,0,46.8,13.75,46.8,41.25,0,13.06-4.33,23.56-12.98,31.49-8.66,7.93-20.26,11.89-34.82,11.89h-23.43Zm13.99-72.71v60.85h11.21c9.88,0,17.56-2.71,23.05-8.14,5.49-5.43,8.23-13.1,8.23-23.02,0-19.79-10.25-29.69-30.75-29.69h-11.74Z"/><polygon class="cls-4" points="268.03 60.51 207 60.51 207 72.43 249.97 72.43 203.4 138.71 203.4 138.71 204.89 145.14 268.97 145.14 268.97 133.28 223.06 133.28 269.44 66.64 268.03 60.51"/></g></g><polygon class="cls-2" points="68.55 128.02 68.55 128.02 68.55 123.91 56.72 126.64 40.15 54.88 111.92 38.31 115.18 52.47 119.3 52.47 114.92 33.5 35.34 51.87 53.72 131.45 68.55 128.02 68.55 128.02"/><g><g><path class="cls-3" d="M325.02,144.36c-1.4,.72-3.13,1.09-5.21,1.09-2.69,0-4.84-.85-6.46-2.55-1.62-1.7-2.43-3.92-2.43-6.68,0-2.96,.91-5.36,2.73-7.18,1.82-1.83,4.12-2.74,6.91-2.74,1.79,0,3.28,.25,4.46,.76v3.05c-1.25-.74-2.63-1.11-4.13-1.11-2.01,0-3.63,.64-4.88,1.93-1.25,1.28-1.87,3-1.87,5.14s.58,3.67,1.74,4.88c1.16,1.21,2.69,1.82,4.59,1.82,1.75,0,3.26-.41,4.55-1.24v2.84Z"/><path class="cls-3" d="M339.23,139.34h-9.02c.03,1.22,.41,2.17,1.13,2.83,.72,.66,1.71,.99,2.96,.99,1.41,0,2.71-.42,3.89-1.27v2.42c-1.21,.76-2.8,1.14-4.78,1.14s-3.47-.6-4.58-1.8c-1.11-1.2-1.66-2.89-1.66-5.07,0-2.06,.61-3.74,1.83-5.03,1.22-1.3,2.73-1.94,4.54-1.94s3.21,.58,4.2,1.74c.99,1.16,1.49,2.78,1.49,4.85v1.15Zm-2.89-2.12c0-1.08-.26-1.91-.76-2.51s-1.19-.9-2.07-.9-1.59,.31-2.19,.94c-.6,.63-.97,1.45-1.1,2.47h6.12Z"/><path class="cls-3" d="M353.94,145.14h-3v-7.45c0-2.47-.87-3.71-2.62-3.71-.91,0-1.67,.34-2.26,1.03-.59,.68-.89,1.55-.89,2.59v7.55h-3.01v-13.23h3.01v2.2h.05c.99-1.67,2.42-2.51,4.29-2.51,1.44,0,2.54,.47,3.29,1.4,.76,.94,1.14,2.28,1.14,4.05v8.09Z"/><path class="cls-3" d="M364.43,145c-.59,.29-1.36,.44-2.31,.44-2.57,0-3.85-1.23-3.85-3.7v-7.48h-2.21v-2.35h2.21v-3.06l3-.85v3.92h3.17v2.35h-3.17v6.61c0,.78,.14,1.34,.43,1.68,.28,.34,.76,.5,1.42,.5,.51,0,.95-.15,1.32-.44v2.38Z"/><path class="cls-3" d="M374.66,134.76c-.36-.28-.88-.43-1.56-.43-.89,0-1.63,.4-2.22,1.2-.59,.8-.89,1.89-.89,3.27v6.33h-3v-13.23h3v2.73h.05c.29-.93,.74-1.66,1.35-2.18,.61-.52,1.29-.78,2.04-.78,.54,0,.96,.08,1.24,.25v2.84Z"/><path class="cls-3" d="M388.12,139.34h-9.02c.03,1.22,.41,2.17,1.13,2.83,.72,.66,1.71,.99,2.97,.99,1.41,0,2.71-.42,3.89-1.27v2.42c-1.21,.76-2.8,1.14-4.78,1.14s-3.47-.6-4.58-1.8c-1.11-1.2-1.66-2.89-1.66-5.07,0-2.06,.61-3.74,1.83-5.03,1.22-1.3,2.73-1.94,4.54-1.94s3.21,.58,4.2,1.74c.99,1.16,1.49,2.78,1.49,4.85v1.15Zm-2.89-2.12c0-1.08-.26-1.91-.76-2.51s-1.19-.9-2.07-.9-1.59,.31-2.19,.94c-.6,.63-.97,1.45-1.1,2.47h6.12Z"/></g><g><path class="cls-3" d="M325.6,112.06h-3.59l-2.96-4.96c-.27-.46-.53-.85-.78-1.17-.25-.32-.51-.59-.78-.8-.26-.21-.55-.36-.86-.45-.31-.09-.66-.14-1.05-.14h-1.24v7.52h-3.06v-18.53h6.1c.87,0,1.67,.1,2.4,.31,.73,.21,1.37,.52,1.91,.94,.54,.42,.97,.94,1.27,1.56,.31,.62,.46,1.35,.46,2.19,0,.65-.1,1.26-.29,1.8-.19,.55-.47,1.03-.83,1.46-.36,.43-.79,.79-1.29,1.09-.5,.3-1.07,.53-1.7,.7v.05c.34,.19,.63,.4,.88,.63,.25,.23,.49,.46,.71,.7s.45,.51,.67,.82c.22,.31,.46,.66,.73,1.07l3.29,5.21Zm-11.25-16.03v6.02h2.56c.47,0,.91-.07,1.31-.22,.4-.15,.75-.36,1.04-.63,.29-.28,.52-.61,.68-1.01,.16-.4,.25-.84,.25-1.33,0-.89-.28-1.58-.84-2.08-.56-.5-1.36-.75-2.42-.75h-2.58Z"/><path class="cls-3" d="M338.34,106.26h-9.02c.03,1.22,.41,2.17,1.13,2.83,.72,.66,1.71,.99,2.96,.99,1.41,0,2.71-.42,3.89-1.27v2.42c-1.21,.76-2.8,1.14-4.78,1.14s-3.47-.6-4.58-1.8c-1.11-1.2-1.66-2.89-1.66-5.07,0-2.06,.61-3.74,1.83-5.03,1.22-1.3,2.73-1.94,4.54-1.94s3.21,.58,4.2,1.74c.99,1.16,1.49,2.78,1.49,4.85v1.15Zm-2.89-2.12c0-1.08-.26-1.91-.76-2.51s-1.19-.9-2.07-.9-1.59,.31-2.19,.94c-.6,.63-.97,1.45-1.1,2.47h6.12Z"/><path class="cls-3" d="M340.57,111.65v-2.78c1.12,.85,2.36,1.28,3.71,1.28,1.81,0,2.71-.53,2.71-1.6,0-.3-.08-.56-.23-.77-.16-.21-.36-.4-.63-.56-.26-.16-.57-.31-.93-.44-.36-.13-.76-.28-1.19-.44-.54-.21-1.03-.44-1.47-.68-.44-.24-.8-.51-1.09-.82-.29-.31-.51-.65-.65-1.04-.15-.39-.22-.84-.22-1.36,0-.64,.15-1.2,.45-1.69,.3-.49,.71-.9,1.21-1.23,.51-.33,1.09-.58,1.73-.75,.65-.17,1.31-.25,2-.25,1.22,0,2.32,.19,3.28,.56v2.62c-.93-.64-2-.96-3.2-.96-.38,0-.72,.04-1.03,.12-.31,.08-.57,.19-.78,.32s-.38,.3-.5,.5c-.12,.19-.18,.41-.18,.64,0,.28,.06,.53,.18,.72s.3,.37,.54,.52c.24,.15,.52,.29,.85,.41,.33,.13,.71,.26,1.14,.41,.57,.23,1.08,.47,1.53,.71s.84,.51,1.16,.82c.32,.31,.56,.66,.74,1.06,.17,.4,.26,.88,.26,1.43,0,.67-.16,1.26-.47,1.76s-.72,.91-1.24,1.24-1.11,.57-1.79,.73c-.68,.16-1.39,.24-2.14,.24-1.45,0-2.7-.24-3.76-.72Z"/><path class="cls-3" d="M364.08,106.26h-9.02c.03,1.22,.41,2.17,1.13,2.83,.72,.66,1.71,.99,2.97,.99,1.41,0,2.71-.42,3.89-1.27v2.42c-1.21,.76-2.8,1.14-4.78,1.14s-3.47-.6-4.58-1.8c-1.11-1.2-1.66-2.89-1.66-5.07,0-2.06,.61-3.74,1.83-5.03,1.22-1.3,2.73-1.94,4.54-1.94s3.21,.58,4.2,1.74c.99,1.16,1.49,2.78,1.49,4.85v1.15Zm-2.89-2.12c0-1.08-.26-1.91-.76-2.51s-1.19-.9-2.07-.9-1.59,.31-2.19,.94c-.6,.63-.97,1.45-1.1,2.47h6.12Z"/><path class="cls-3" d="M377.17,112.06h-2.91v-2.07h-.05c-.91,1.58-2.25,2.38-4.02,2.38-1.3,0-2.32-.35-3.06-1.06-.74-.71-1.1-1.64-1.1-2.8,0-2.5,1.44-3.95,4.31-4.37l3.93-.56c0-1.89-.9-2.83-2.69-2.83-1.58,0-3,.54-4.26,1.63v-2.62c1.4-.83,3.01-1.24,4.83-1.24,3.34,0,5.01,1.65,5.01,4.94v8.6Zm-2.89-6.5l-2.78,.39c-.86,.11-1.51,.32-1.94,.63-.43,.31-.65,.84-.65,1.61,0,.56,.2,1.02,.6,1.38s.94,.54,1.61,.54c.91,0,1.67-.32,2.27-.96,.6-.64,.9-1.45,.9-2.42v-1.15Z"/><path class="cls-3" d="M388.45,101.69c-.36-.28-.88-.43-1.56-.43-.89,0-1.63,.4-2.22,1.2-.59,.8-.89,1.89-.89,3.27v6.33h-3v-13.23h3v2.73h.05c.29-.93,.74-1.66,1.35-2.18s1.29-.78,2.03-.78c.54,0,.96,.08,1.24,.25v2.84Z"/><path class="cls-3" d="M400.13,111.46c-1.06,.61-2.31,.92-3.76,.92-1.96,0-3.55-.61-4.75-1.84s-1.81-2.82-1.81-4.77c0-2.18,.65-3.93,1.94-5.25s3.03-1.98,5.2-1.98c1.21,0,2.27,.21,3.19,.63v2.79c-.92-.69-1.9-1.03-2.95-1.03-1.27,0-2.3,.43-3.11,1.29s-1.21,1.98-1.21,3.37,.38,2.45,1.14,3.24c.76,.79,1.78,1.19,3.07,1.19,1.08,0,2.09-.38,3.05-1.15v2.61Z"/><path class="cls-3" d="M414.92,112.06h-3v-7.24c0-2.62-.87-3.93-2.62-3.93-.88,0-1.62,.38-2.22,1.14s-.9,1.73-.9,2.91v7.12h-3.01v-19.59h3.01v8.55h.05c1-1.67,2.43-2.51,4.29-2.51,2.94,0,4.41,1.8,4.41,5.39v8.15Z"/><path class="cls-3" d="M426.7,112.06v-18.53h5.35c6.83,0,10.25,3.01,10.25,9.03,0,2.86-.95,5.16-2.84,6.89s-4.44,2.6-7.62,2.6h-5.13Zm3.06-15.92v13.32h2.45c2.16,0,3.84-.59,5.05-1.78,1.2-1.19,1.8-2.87,1.8-5.04,0-4.33-2.24-6.5-6.73-6.5h-2.57Z"/><path class="cls-3" d="M455.34,112.06h-2.91v-2.07h-.05c-.91,1.58-2.25,2.38-4.02,2.38-1.3,0-2.32-.35-3.06-1.06-.74-.71-1.11-1.64-1.11-2.8,0-2.5,1.44-3.95,4.32-4.37l3.93-.56c0-1.89-.9-2.83-2.69-2.83-1.58,0-3,.54-4.26,1.63v-2.62c1.4-.83,3.01-1.24,4.83-1.24,3.34,0,5.01,1.65,5.01,4.94v8.6Zm-2.89-6.5l-2.78,.39c-.86,.11-1.51,.32-1.94,.63-.43,.31-.65,.84-.65,1.61,0,.56,.2,1.02,.6,1.38s.94,.54,1.61,.54c.91,0,1.67-.32,2.27-.96s.9-1.45,.9-2.42v-1.15Z"/><path class="cls-3" d="M465.86,111.92c-.59,.29-1.36,.44-2.31,.44-2.57,0-3.85-1.23-3.85-3.7v-7.48h-2.21v-2.35h2.21v-3.06l3-.85v3.92h3.17v2.35h-3.17v6.61c0,.78,.14,1.34,.43,1.68,.28,.34,.76,.5,1.42,.5,.51,0,.95-.15,1.32-.44v2.38Z"/><path class="cls-3" d="M478.94,112.06h-2.91v-2.07h-.05c-.91,1.58-2.25,2.38-4.02,2.38-1.3,0-2.32-.35-3.06-1.06-.74-.71-1.11-1.64-1.11-2.8,0-2.5,1.44-3.95,4.32-4.37l3.93-.56c0-1.89-.9-2.83-2.69-2.83-1.58,0-3,.54-4.26,1.63v-2.62c1.4-.83,3.01-1.24,4.83-1.24,3.34,0,5.01,1.65,5.01,4.94v8.6Zm-2.89-6.5l-2.78,.39c-.86,.11-1.51,.32-1.94,.63-.43,.31-.65,.84-.65,1.61,0,.56,.2,1.02,.6,1.38s.94,.54,1.61,.54c.91,0,1.67-.32,2.27-.96s.9-1.45,.9-2.42v-1.15Z"/></g><g><path class="cls-3" d="M314.46,79.03h-3.17v-18.53h3.17v18.53Z"/><path class="cls-3" d="M326.57,79.34c-2.67,0-4.81-.87-6.41-2.6-1.61-1.73-2.41-3.98-2.41-6.76,0-2.98,.82-5.36,2.45-7.13,1.64-1.77,3.86-2.66,6.67-2.66,2.6,0,4.7,.86,6.29,2.58,1.59,1.72,2.38,3.97,2.38,6.76,0,3.02-.81,5.41-2.44,7.17-1.63,1.76-3.8,2.64-6.52,2.64Zm.14-16.45c-1.7,0-3.08,.63-4.14,1.9-1.06,1.27-1.6,2.93-1.6,5s.52,3.72,1.55,4.97c1.03,1.26,2.39,1.89,4.06,1.89,1.77,0,3.17-.6,4.2-1.8,1.03-1.2,1.54-2.87,1.54-5.03s-.5-3.92-1.49-5.13c-.99-1.21-2.37-1.81-4.11-1.81Z"/><path class="cls-3" d="M349.25,79.03h-10.4v-18.53h9.99v2.61h-6.91v5.25h6.37v2.6h-6.37v5.48h7.33v2.6Z"/><path class="cls-3" d="M366.62,79.03h-3.59l-2.96-4.96c-.27-.46-.53-.85-.78-1.17-.25-.32-.51-.59-.78-.8s-.55-.36-.86-.45c-.31-.09-.66-.14-1.05-.14h-1.24v7.52h-3.06v-18.53h6.1c.87,0,1.67,.1,2.4,.31,.73,.21,1.37,.52,1.91,.94,.54,.42,.97,.94,1.27,1.56,.31,.62,.46,1.35,.46,2.19,0,.65-.1,1.26-.29,1.8-.19,.55-.47,1.03-.83,1.46-.36,.43-.79,.79-1.29,1.09s-1.07,.53-1.7,.7v.05c.34,.19,.63,.4,.88,.63,.25,.23,.49,.46,.71,.7,.22,.24,.45,.51,.66,.82,.22,.31,.46,.66,.73,1.07l3.29,5.21Zm-11.25-16.03v6.02h2.56c.47,0,.91-.07,1.31-.22,.4-.15,.75-.36,1.04-.63,.29-.28,.52-.61,.68-1.01,.16-.4,.25-.84,.25-1.33,0-.89-.28-1.58-.84-2.08-.56-.5-1.37-.75-2.42-.75h-2.58Z"/></g></g></g></svg>