<?xml version="1.0" encoding="UTF-8"?><svg xmlns="http://www.w3.org/2000/svg" viewBox="0 0 752.74 200"><defs><style>.cls-1{fill:#86bc27;}.cls-2{fill:#5a5a5a;}.cls-3{fill:none;}.cls-4{fill:#0970b9;}</style></defs><g id="Hintergrund_weiß"><rect class="cls-3" width="752.74" height="200"/></g><g id="Logo"><g><path class="cls-4" d="M147.51,66.06h-53.68v43.16h49.47v20.13h-49.47v60.09h-23.84V45.83h77.52v20.23Z"/><g><path class="cls-4" d="M164.7,189.44V45.83h41.46c52.94,0,79.42,23.33,79.42,70,0,22.17-7.35,39.98-22.03,53.43-14.69,13.45-34.39,20.18-59.09,20.18h-39.76Zm23.74-123.38v103.25h19.03c16.76,0,29.79-4.61,39.11-13.82,9.31-9.21,13.97-22.23,13.97-39.06,0-33.58-17.39-50.37-52.18-50.37h-19.93Z"/><polygon class="cls-4" points="394.84 45.82 291.29 45.82 291.29 66.05 364.2 66.05 285.18 178.52 285.18 178.52 287.7 189.44 396.45 189.44 396.45 169.31 318.53 169.31 397.25 56.24 394.84 45.82"/></g></g><polygon class="cls-1" points="56.35 160.39 56.35 160.39 56.35 153.41 36.27 158.05 8.16 36.27 129.93 8.16 135.48 32.19 142.46 32.19 135.03 0 0 31.17 31.17 166.21 56.35 160.4 56.35 160.39"/><g><g><path class="cls-2" d="M491.56,188.12c-2.37,1.23-5.31,1.84-8.84,1.84-4.56,0-8.21-1.44-10.96-4.32-2.75-2.88-4.12-6.66-4.12-11.33,0-5.03,1.55-9.09,4.64-12.19,3.09-3.1,7-4.65,11.72-4.65,3.04,0,5.56,.43,7.56,1.29v5.17c-2.12-1.26-4.46-1.89-7.02-1.89-3.4,0-6.16,1.09-8.28,3.27-2.11,2.18-3.17,5.09-3.17,8.73s.99,6.22,2.96,8.28c1.97,2.05,4.57,3.08,7.78,3.08,2.97,0,5.54-.7,7.72-2.1v4.82Z"/><path class="cls-2" d="M515.66,179.59h-15.3c.06,2.08,.7,3.68,1.92,4.8,1.22,1.13,2.9,1.69,5.03,1.69,2.4,0,4.6-.72,6.6-2.15v4.1c-2.05,1.29-4.75,1.93-8.11,1.93s-5.89-1.02-7.77-3.06-2.82-4.91-2.82-8.61c0-3.49,1.03-6.34,3.1-8.54,2.07-2.2,4.64-3.3,7.71-3.3s5.44,.99,7.13,2.96c1.68,1.97,2.52,4.71,2.52,8.22v1.95Zm-4.91-3.6c-.02-1.83-.45-3.25-1.29-4.26s-2.02-1.52-3.51-1.52-2.7,.53-3.72,1.6c-1.02,1.07-1.64,2.46-1.87,4.19h10.39Z"/><path class="cls-2" d="M540.63,189.44h-5.09v-12.65c0-4.2-1.48-6.29-4.45-6.29-1.55,0-2.83,.58-3.84,1.74-1.01,1.16-1.51,2.63-1.51,4.4v12.8h-5.11v-22.45h5.11v3.73h.09c1.68-2.84,4.11-4.25,7.28-4.25,2.44,0,4.3,.79,5.59,2.38,1.29,1.59,1.93,3.88,1.93,6.87v13.72Z"/><path class="cls-2" d="M558.42,189.2c-.99,.5-2.3,.74-3.93,.74-4.36,0-6.53-2.09-6.53-6.27v-12.69h-3.75v-3.99h3.75v-5.2l5.09-1.45v6.64h5.37v3.99h-5.37v11.22c0,1.33,.24,2.28,.72,2.85,.48,.57,1.29,.85,2.41,.85,.86,0,1.61-.25,2.24-.74v4.03Z"/><path class="cls-2" d="M575.78,171.83c-.61-.48-1.5-.72-2.65-.72-1.51,0-2.76,.68-3.77,2.04-1.01,1.36-1.51,3.21-1.51,5.55v10.74h-5.09v-22.45h5.09v4.63h.09c.5-1.58,1.26-2.81,2.29-3.69,1.03-.88,2.18-1.33,3.45-1.33,.92,0,1.62,.14,2.1,.42v4.82Z"/><path class="cls-2" d="M598.64,179.59h-15.3c.06,2.08,.7,3.68,1.92,4.8,1.22,1.13,2.9,1.69,5.03,1.69,2.4,0,4.6-.72,6.6-2.15v4.1c-2.05,1.29-4.75,1.93-8.11,1.93s-5.89-1.02-7.77-3.06c-1.88-2.04-2.82-4.91-2.82-8.61,0-3.49,1.03-6.34,3.1-8.54,2.07-2.2,4.64-3.3,7.71-3.3s5.45,.99,7.13,2.96c1.68,1.97,2.52,4.71,2.52,8.22v1.95Zm-4.91-3.6c-.02-1.83-.45-3.25-1.29-4.26s-2.02-1.52-3.51-1.52-2.7,.53-3.72,1.6c-1.02,1.07-1.64,2.46-1.87,4.19h10.39Z"/></g><g><path class="cls-2" d="M492.55,133.31h-6.1l-5.02-8.42c-.45-.78-.9-1.44-1.33-1.98-.43-.55-.87-1-1.32-1.35-.45-.35-.93-.61-1.46-.77-.53-.16-1.12-.24-1.78-.24h-2.1v12.76h-5.2v-31.44h10.35c1.48,0,2.84,.18,4.08,.53,1.24,.35,2.32,.88,3.24,1.59,.92,.71,1.64,1.59,2.16,2.65,.52,1.06,.78,2.3,.78,3.72,0,1.11-.16,2.13-.49,3.06-.33,.93-.8,1.75-1.4,2.48-.61,.72-1.34,1.34-2.19,1.85-.86,.51-1.82,.91-2.88,1.18v.09c.57,.32,1.07,.68,1.49,1.06,.42,.39,.83,.79,1.21,1.19s.76,.87,1.13,1.39c.37,.52,.79,1.12,1.24,1.81l5.59,8.84Zm-19.1-27.21v10.22h4.34c.8,0,1.55-.12,2.23-.37,.68-.25,1.27-.61,1.76-1.07,.5-.47,.88-1.04,1.16-1.71,.28-.67,.42-1.43,.42-2.26,0-1.5-.47-2.68-1.43-3.53-.95-.85-2.32-1.27-4.1-1.27h-4.38Z"/><path class="cls-2" d="M514.15,123.47h-15.3c.06,2.08,.7,3.68,1.92,4.8,1.22,1.13,2.9,1.69,5.03,1.69,2.4,0,4.6-.72,6.6-2.15v4.1c-2.05,1.29-4.75,1.93-8.11,1.93s-5.89-1.02-7.77-3.06-2.82-4.91-2.82-8.61c0-3.49,1.03-6.34,3.1-8.54,2.07-2.2,4.64-3.3,7.71-3.3s5.44,.99,7.13,2.96c1.68,1.97,2.52,4.71,2.52,8.22v1.95Zm-4.91-3.6c-.02-1.83-.45-3.25-1.29-4.26-.85-1.02-2.02-1.52-3.51-1.52s-2.7,.53-3.72,1.6c-1.02,1.07-1.64,2.46-1.87,4.19h10.39Z"/><path class="cls-2" d="M517.94,132.61v-4.71c1.9,1.45,4,2.17,6.29,2.17,3.07,0,4.6-.91,4.6-2.72,0-.51-.13-.95-.39-1.3-.26-.36-.62-.68-1.06-.95-.45-.28-.97-.53-1.58-.74-.61-.22-1.28-.47-2.03-.75-.92-.36-1.75-.75-2.49-1.16-.74-.41-1.35-.87-1.84-1.39-.49-.52-.86-1.11-1.11-1.77-.25-.66-.37-1.42-.37-2.3,0-1.08,.25-2.04,.77-2.86,.51-.83,1.2-1.52,2.06-2.08,.86-.56,1.84-.99,2.94-1.27,1.1-.29,2.23-.43,3.4-.43,2.08,0,3.93,.31,5.57,.94v4.45c-1.58-1.08-3.39-1.62-5.44-1.62-.64,0-1.22,.07-1.74,.2-.52,.13-.96,.31-1.33,.55s-.65,.51-.85,.84c-.2,.33-.31,.69-.31,1.09,0,.48,.1,.89,.31,1.23s.51,.63,.91,.89c.4,.26,.88,.49,1.45,.7,.56,.21,1.21,.44,1.94,.69,.96,.39,1.83,.8,2.6,1.21s1.42,.87,1.96,1.39c.54,.52,.96,1.12,1.25,1.8,.29,.68,.44,1.49,.44,2.42,0,1.14-.26,2.13-.79,2.98s-1.23,1.55-2.1,2.1-1.89,.97-3.04,1.24c-1.15,.27-2.36,.41-3.63,.41-2.46,0-4.58-.41-6.38-1.23Z"/><path class="cls-2" d="M557.84,123.47h-15.3c.06,2.08,.7,3.68,1.92,4.8,1.22,1.13,2.9,1.69,5.03,1.69,2.4,0,4.6-.72,6.6-2.15v4.1c-2.05,1.29-4.75,1.93-8.11,1.93s-5.89-1.02-7.77-3.06c-1.88-2.04-2.82-4.91-2.82-8.61,0-3.49,1.03-6.34,3.1-8.54,2.07-2.2,4.64-3.3,7.71-3.3s5.45,.99,7.13,2.96c1.68,1.97,2.52,4.71,2.52,8.22v1.95Zm-4.91-3.6c-.02-1.83-.45-3.25-1.29-4.26s-2.02-1.52-3.51-1.52-2.7,.53-3.72,1.6c-1.02,1.07-1.64,2.46-1.87,4.19h10.39Z"/><path class="cls-2" d="M580.06,133.31h-4.93v-3.51h-.09c-1.55,2.69-3.82,4.03-6.82,4.03-2.21,0-3.93-.6-5.18-1.8-1.25-1.2-1.87-2.78-1.87-4.76,0-4.24,2.44-6.71,7.32-7.41l6.67-.94c0-3.2-1.52-4.8-4.56-4.8-2.68,0-5.09,.92-7.24,2.76v-4.45c2.37-1.4,5.1-2.1,8.2-2.1,5.67,0,8.51,2.79,8.51,8.38v14.6Zm-4.91-11.03l-4.71,.66c-1.46,.19-2.56,.54-3.3,1.06-.74,.52-1.11,1.43-1.11,2.73,0,.95,.34,1.73,1.02,2.33s1.59,.91,2.73,.91c1.55,0,2.83-.54,3.85-1.63,1.01-1.09,1.52-2.46,1.52-4.11v-1.95Z"/><path class="cls-2" d="M599.18,115.71c-.61-.48-1.5-.72-2.65-.72-1.5,0-2.76,.68-3.77,2.04-1.01,1.36-1.51,3.21-1.51,5.55v10.74h-5.09v-22.45h5.09v4.63h.09c.5-1.58,1.26-2.81,2.29-3.69s2.18-1.33,3.45-1.33c.92,0,1.62,.14,2.1,.42v4.82Z"/><path class="cls-2" d="M619.01,132.28c-1.8,1.04-3.92,1.56-6.38,1.56-3.33,0-6.02-1.04-8.07-3.12s-3.07-4.78-3.07-8.1c0-3.7,1.1-6.67,3.3-8.91,2.2-2.24,5.14-3.36,8.82-3.36,2.05,0,3.85,.36,5.42,1.07v4.74c-1.56-1.17-3.23-1.75-5-1.75-2.15,0-3.91,.73-5.28,2.18-1.37,1.45-2.06,3.36-2.06,5.71s.65,4.16,1.94,5.5c1.29,1.34,3.03,2.02,5.21,2.02,1.83,0,3.55-.65,5.17-1.95v4.43Z"/><path class="cls-2" d="M644.1,133.31h-5.09v-12.28c0-4.44-1.48-6.66-4.45-6.66-1.49,0-2.75,.64-3.77,1.93s-1.54,2.93-1.54,4.93v12.08h-5.11v-33.24h5.11v14.51h.09c1.7-2.84,4.12-4.25,7.28-4.25,4.98,0,7.48,3.05,7.48,9.14v13.83Z"/><path class="cls-2" d="M664.1,133.31v-31.44h9.08c11.59,0,17.38,5.11,17.38,15.32,0,4.85-1.61,8.75-4.82,11.7s-7.53,4.42-12.93,4.42h-8.7Zm5.2-27.01v22.6h4.17c3.67,0,6.52-1.01,8.56-3.03,2.04-2.02,3.06-4.87,3.06-8.55,0-7.35-3.81-11.03-11.42-11.03h-4.36Z"/><path class="cls-2" d="M712.69,133.31h-4.93v-3.51h-.09c-1.55,2.69-3.82,4.03-6.82,4.03-2.21,0-3.94-.6-5.18-1.8-1.25-1.2-1.88-2.78-1.88-4.76,0-4.24,2.44-6.71,7.32-7.41l6.66-.94c0-3.2-1.52-4.8-4.56-4.8-2.67,0-5.09,.92-7.24,2.76v-4.45c2.37-1.4,5.1-2.1,8.2-2.1,5.67,0,8.51,2.79,8.51,8.38v14.6Zm-4.91-11.03l-4.71,.66c-1.46,.19-2.56,.54-3.3,1.06-.74,.52-1.11,1.43-1.11,2.73,0,.95,.34,1.73,1.02,2.33,.68,.61,1.59,.91,2.73,.91,1.55,0,2.83-.54,3.85-1.63,1.02-1.09,1.52-2.46,1.52-4.11v-1.95Z"/><path class="cls-2" d="M730.55,133.07c-.99,.5-2.3,.74-3.92,.74-4.36,0-6.53-2.09-6.53-6.27v-12.69h-3.75v-3.99h3.75v-5.2l5.09-1.45v6.64h5.37v3.99h-5.37v11.22c0,1.33,.24,2.28,.72,2.85,.48,.57,1.29,.85,2.41,.85,.86,0,1.61-.25,2.24-.74v4.03Z"/><path class="cls-2" d="M752.74,133.31h-4.93v-3.51h-.09c-1.55,2.69-3.82,4.03-6.82,4.03-2.21,0-3.94-.6-5.18-1.8-1.25-1.2-1.88-2.78-1.88-4.76,0-4.24,2.44-6.71,7.32-7.41l6.66-.94c0-3.2-1.52-4.8-4.56-4.8-2.67,0-5.09,.92-7.24,2.76v-4.45c2.37-1.4,5.1-2.1,8.2-2.1,5.67,0,8.51,2.79,8.51,8.38v14.6Zm-4.91-11.03l-4.71,.66c-1.46,.19-2.56,.54-3.3,1.06-.74,.52-1.11,1.43-1.11,2.73,0,.95,.34,1.73,1.02,2.33s1.59,.91,2.73,.91c1.55,0,2.83-.54,3.85-1.63,1.02-1.09,1.52-2.46,1.52-4.11v-1.95Z"/></g><g><path class="cls-2" d="M473.63,77.25h-5.37v-31.44h5.37v31.44Z"/><path class="cls-2" d="M494.19,77.78c-4.53,0-8.16-1.47-10.89-4.41-2.73-2.94-4.09-6.76-4.09-11.47,0-5.06,1.39-9.09,4.16-12.1s6.55-4.52,11.31-4.52c4.41,0,7.97,1.46,10.67,4.38,2.7,2.92,4.05,6.75,4.05,11.47,0,5.13-1.38,9.19-4.14,12.17-2.76,2.98-6.45,4.47-11.07,4.47Zm.24-27.91c-2.88,0-5.22,1.07-7.03,3.22-1.81,2.15-2.71,4.98-2.71,8.48s.88,6.31,2.63,8.44c1.75,2.13,4.05,3.2,6.88,3.2,3.01,0,5.39-1.02,7.13-3.05,1.74-2.03,2.61-4.87,2.61-8.53s-.84-6.66-2.53-8.7c-1.69-2.05-4.02-3.07-6.98-3.07Z"/><path class="cls-2" d="M532.68,77.25h-17.65v-31.44h16.95v4.43h-11.73v8.9h10.81v4.41h-10.81v9.3h12.43v4.41Z"/><path class="cls-2" d="M562.14,77.25h-6.09l-5.02-8.42c-.45-.78-.9-1.44-1.33-1.98-.43-.55-.87-1-1.32-1.35-.45-.35-.93-.61-1.46-.77-.53-.16-1.12-.24-1.78-.24h-2.1v12.76h-5.2v-31.44h10.35c1.48,0,2.84,.18,4.08,.53,1.24,.35,2.32,.88,3.24,1.59,.92,.71,1.64,1.59,2.16,2.65,.52,1.06,.78,2.3,.78,3.72,0,1.11-.16,2.13-.49,3.06-.33,.93-.8,1.75-1.4,2.48-.61,.72-1.34,1.34-2.19,1.85s-1.82,.91-2.88,1.18v.09c.57,.32,1.07,.68,1.49,1.06,.42,.39,.83,.79,1.21,1.19,.38,.41,.76,.87,1.13,1.39,.37,.52,.79,1.12,1.24,1.81l5.59,8.84Zm-19.1-27.21v10.22h4.34c.8,0,1.55-.12,2.23-.37,.68-.25,1.27-.61,1.77-1.07,.5-.47,.88-1.04,1.16-1.71,.28-.67,.42-1.43,.42-2.26,0-1.5-.48-2.68-1.43-3.53-.95-.85-2.32-1.27-4.1-1.27h-4.38Z"/></g></g></g></svg>